HIERARCHY
ROOT Hips
{
	OFFSET 0.00000 0.00000 0.00000
	CHANNELS 6 Xposition Yposition Zposition Zrotation Yrotation Xrotation 
	JOINT LHipJoint
	{
		OFFSET 0 0 0
		CHANNELS 3 Zrotation Yrotation Xrotation
		JOINT LeftUpLeg
		{
			OFFSET 1.46561 -1.72757 0.83774
			CHANNELS 3 Zrotation Yrotation Xrotation
			JOINT LeftLeg
			{
				OFFSET 2.48915 -6.83890 0.00000
				CHANNELS 3 Zrotation Yrotation Xrotation
				JOINT LeftFoot
				{
					OFFSET 2.60555 -7.15868 0.00000
					CHANNELS 3 Zrotation Yrotation Xrotation
					JOINT LeftToeBase
					{
						OFFSET 0.19248 -0.52884 2.26738
						CHANNELS 3 Zrotation Yrotation Xrotation
						End Site
						{
							OFFSET 0.00000 -0.00000 1.17015
						}
					}
				}
			}
		}
	}
	JOINT RHipJoint
	{
		OFFSET 0 0 0
		CHANNELS 3 Zrotation Yrotation Xrotation
		JOINT RightUpLeg
		{
			OFFSET -1.46918 -1.72757 0.83774
			CHANNELS 3 Zrotation Yrotation Xrotation
			JOINT RightLeg
			{
				OFFSET -2.49034 -6.84216 0.00000
				CHANNELS 3 Zrotation Yrotation Xrotation
				JOINT RightFoot
				{
					OFFSET -2.65971 -7.30750 0.00000
					CHANNELS 3 Zrotation Yrotation Xrotation
					JOINT RightToeBase
					{
						OFFSET -0.19227 -0.52827 2.30785
						CHANNELS 3 Zrotation Yrotation Xrotation
						End Site
						{
							OFFSET -0.00000 -0.00000 1.18972
						}
					}
				}
			}
		}
	}
	JOINT LowerBack
	{
		OFFSET 0 0 0
		CHANNELS 3 Zrotation Yrotation Xrotation
		JOINT Spine
		{
			OFFSET 0.02432 2.19909 -0.28000
			CHANNELS 3 Zrotation Yrotation Xrotation
			JOINT Spine1
			{
				OFFSET 0.03714 2.21816 -0.15261
				CHANNELS 3 Zrotation Yrotation Xrotation
				JOINT Neck
				{
					OFFSET 0 0 0
					CHANNELS 3 Zrotation Yrotation Xrotation
					JOINT Neck1
					{
						OFFSET -0.01896 1.56165 0.21681
						CHANNELS 3 Zrotation Yrotation Xrotation
						JOINT Head
						{
							OFFSET 0.02744 1.56009 0.06764
							CHANNELS 3 Zrotation Yrotation Xrotation
							End Site
							{
								OFFSET 0.01212 1.60574 0.00298
							}
						}
					}
				}
				JOINT LeftShoulder
				{
					OFFSET 0 0 0
					CHANNELS 3 Zrotation Yrotation Xrotation
					JOINT LeftArm
					{
						OFFSET 3.05595 1.48048 -0.60794
						CHANNELS 3 Zrotation Yrotation Xrotation
						JOINT LeftForeArm
						{
							OFFSET 5.20607 -0.00000 -0.00000
							CHANNELS 3 Zrotation Yrotation Xrotation
							JOINT LeftHand
							{
								OFFSET 3.39961 -0.00000 0.00000
								CHANNELS 3 Zrotation Yrotation Xrotation
								JOINT LeftFingerBase
								{
									OFFSET 0 0 0
									CHANNELS 3 Zrotation Yrotation Xrotation
									JOINT LeftHandIndex1
									{
										OFFSET 0.51969 -0.00000 0.00000
										CHANNELS 3 Zrotation Yrotation Xrotation
										End Site
										{
											OFFSET 0.41899 -0.00000 0.00000
										}
									}
								}
								JOINT LThumb
								{
									OFFSET 0 0 0
									CHANNELS 3 Zrotation Yrotation Xrotation
									End Site
									{
										OFFSET 0.42539 -0.00000 0.42539
									}
								}
							}
						}
					}
				}
				JOINT RightShoulder
				{
					OFFSET 0 0 0
					CHANNELS 3 Zrotation Yrotation Xrotation
					JOINT RightArm
					{
						OFFSET -2.99052 1.57608 -0.69102
						CHANNELS 3 Zrotation Yrotation Xrotation
						JOINT RightForeArm
						{
							OFFSET -5.32214 -0.00000 0.00000
							CHANNELS 3 Zrotation Yrotation Xrotation
							JOINT RightHand
							{
								OFFSET -3.51208 -0.00000 0.00000
								CHANNELS 3 Zrotation Yrotation Xrotation
								JOINT RightFingerBase
								{
									OFFSET 0 0 0
									CHANNELS 3 Zrotation Yrotation Xrotation
									JOINT RightHandIndex1
									{
										OFFSET -0.58668 -0.00000 0.00000
										CHANNELS 3 Zrotation Yrotation Xrotation
										End Site
										{
											OFFSET -0.47300 -0.00000 0.00000
										}
									}
								}
								JOINT RThumb
								{
									OFFSET 0 0 0
									CHANNELS 3 Zrotation Yrotation Xrotation
									End Site
									{
										OFFSET -0.48022 -0.00000 0.48022
									}
								}
							}
						}
					}
				}
			}
		}
	}
}
MOTION
Frames: 12
Frame Time: .0083333
0.3279 17.3911 -14.6167 0 0 0 0 0 0 -21 0 0 0 0 0 0 0 0 0 0 0 0 0 0 21 0 0 0 0 0 0 0 0 0 0 0 0 0 0 0 0 0 0 0 0 0 0 -16 0 0 21 0 0 11 0 0 0 -8 0 0 0 0 0 0 0 0 0 0 0 0 0 0 0 0 0 0 0 0 8 0 0 0 0 0 0 0 0 0 0 0 0 0 0 0 0 0
0.3279 17.3911 -14.6167 -2.2063 0.3564 7.1788 0.0000 0.0000 0.0000 -15.8746 1.2116 -21.5109 2.1963 9.2635 26.6232 0.5487 -0.9582 -13.6955 0.0000 0.0144 0.0395 0.0000 0.0000 0.0000 19.6850 3.5685 -20.6883 -2.2896 -9.4449 27.1971 -0.6196 1.8218 -14.3574 -0.3449 -3.7738 10.4411 0.5051 -0.4262 2.3563 2.3461 -0.6249 4.3764 2.1291 -0.3392 3.2004 -1.5778 0.6405 -12.7390 0.0888 1.3400 33.9962 0.5152 0.3919 13.5961 -0.0000 0.0000 0.0000 -87.2559 -18.1690 33.7643 11.0190 -18.3173 -1.7819 -0.0000 0.0000 -5.8292 23.6902 -5.3805 -2.3560 -7.1250 0.0000 -0.0000 -2.2334 24.1081 1.1272 -0.0000 0.0000 0.0000 85.5567 15.2363 18.0496 -15.2568 24.5026 -3.3317 0.0000 0.0000 26.8121 -21.1806 -25.5290 9.4805 7.1250 -0.0000 -0.0000 9.4288 -56.8521 -2.7555
0.3310 17.3876 -14.6186 -2.2258 0.3673 7.1836 0.0000 0.0000 0.0000 -15.8595 1.1886 -21.5884 2.2166 9.3034 26.7492 0.5526 -0.9531 -13.7467 0.0000 -0.0124 -0.0340 0.0000 0.0000 0.0000 19.6896 3.5713 -20.7481 -2.3050 -9.4743 27.2907 -0.6243 1.8315 -14.4115 -0.3404 -3.7491 10.3719 0.5337 -0.4271 2.3759 2.3528 -0.6261 4.3847 2.1201 -0.3391 3.1978 -1.6029 0.6366 -12.7502 0.1134 1.3325 33.9528 0.5280 0.3892 13.5791 -0.0000 0.0000 0.0000 -87.1757 -18.0868 34.1000 11.1055 -18.4497 -1.8092 -0.0000 0.0000 -6.0937 23.8484 -4.6991 -2.0740 -7.1250 0.0000 -0.0000 -2.1082 24.8443 1.0280 -0.0000 0.0000 0.0000 85.5559 15.3079 18.2155 -15.2686 24.5190 -3.3366 0.0000 0.0000 26.5886 -21.1178 -25.6431 9.4889 7.1250 -0.0000 -0.0000 9.5490 -56.9549 -2.8149
0.3334 17.3843 -14.6202 -2.2305 0.3754 7.1802 0.0000 0.0000 0.0000 -15.8559 1.1690 -21.6675 2.2394 9.3478 26.8896 0.5571 -0.9587 -13.8025 0.0000 -0.0023 -0.0063 0.0000 0.0000 0.0000 19.6824 3.5673 -20.8038 -2.3201 -9.5033 27.3827 -0.6274 1.8473 -14.4449 -0.3432 -3.7644 10.4148 0.5285 -0.4314 2.4121 2.3672 -0.6313 4.3786 2.1381 -0.3420 3.1715 -1.6044 0.6375 -12.7345 0.0834 1.3438 33.9215 0.5178 0.3903 13.5621 -0.0000 -0.0000 0.0000 -87.1475 -18.0244 34.2737 11.1325 -18.4910 -1.8177 -0.0000 0.0000 -6.1946 24.1064 -4.3031 -1.9229 -7.1250 0.0000 -0.0000 -1.9111 25.2670 0.9130 -0.0000 -0.0000 0.0000 85.5387 15.3403 18.3736 -15.2779 24.5318 -3.3405 0.0000 0.0000 26.4347 -21.1288 -25.7180 9.5196 7.1250 -0.0000 -0.0000 9.5727 -57.0334 -2.8402
0.3359 17.3798 -14.6222 -2.2730 0.3600 7.1771 0.0000 0.0000 0.0000 -15.8109 1.1759 -21.7568 2.2627 9.3931 27.0330 0.5610 -0.9653 -13.8495 0.0000 0.0017 0.0047 0.0000 0.0000 0.0000 19.7134 3.6155 -20.8510 -2.3359 -9.5332 27.4781 -0.6299 1.8313 -14.4779 -0.3341 -3.7145 10.2749 0.5653 -0.4292 2.4416 2.3810 -0.6284 4.3968 2.1320 -0.3397 3.1736 -1.6173 0.6359 -12.7847 0.1034 1.3388 33.8890 0.5274 0.3893 13.5587 0.0000 0.0000 0.0000 -87.0649 -18.0203 34.6788 11.1614 -18.5352 -1.8269 -0.0000 0.0000 -6.6323 24.3915 -3.9655 -1.7961 -7.1250 0.0000 -0.0000 -1.6933 25.6267 0.7947 0.0000 0.0000 0.0000 85.5100 15.4252 18.6304 -15.2959 24.5567 -3.3480 0.0000 0.0000 26.2741 -21.1744 -25.7145 9.5405 7.1250 -0.0000 -0.0000 9.5225 -57.0396 -2.8265
0.3383 17.3756 -14.6246 -2.2992 0.3568 7.1773 0.0000 0.0000 0.0000 -15.7836 1.1678 -21.8503 2.2871 9.4400 27.1817 0.5654 -0.9715 -13.9030 0.0000 -0.0037 -0.0102 0.0000 0.0000 0.0000 19.7267 3.6465 -20.9094 -2.3526 -9.5649 27.5789 -0.6330 1.8251 -14.5163 -0.3285 -3.6836 10.1881 0.5865 -0.4297 2.4743 2.3931 -0.6288 4.4049 2.1328 -0.3395 3.1635 -1.6301 0.6327 -12.8022 0.1135 1.3339 33.8489 0.5328 0.3872 13.5447 0.0000 -0.0000 0.0000 -86.9943 -17.9989 35.0442 11.1957 -18.5876 -1.8378 -0.0000 0.0000 -7.0025 24.7077 -3.6297 -1.6685 -7.1250 0.0000 -0.0000 -1.4512 25.9851 0.6689 0.0000 -0.0000 0.0000 85.4834 15.4928 18.8598 -15.3165 24.5852 -3.3565 0.0000 0.0000 26.1065 -21.2084 -25.7236 9.5602 7.1250 -0.0000 -0.0000 9.4905 -57.0563 -2.8207
0.3407 17.3711 -14.6276 -2.3256 0.3511 7.1805 0.0000 0.0000 0.0000 -15.7556 1.1592 -21.9559 2.3133 9.4902 27.3411 0.5699 -0.9782 -13.9579 0.0000 -0.0121 -0.0334 0.0000 0.0000 0.0000 19.7387 3.6870 -20.9762 -2.3708 -9.5991 27.6880 -0.6361 1.8163 -14.5548 -0.3228 -3.6521 10.0999 0.6079 -0.4299 2.5102 2.4047 -0.6287 4.4122 2.1329 -0.3390 3.1508 -1.6419 0.6286 -12.8208 0.1256 1.3269 33.8079 0.5384 0.3845 13.5307 0.0000 0.0000 0.0000 -86.9163 -17.9890 35.4572 11.2313 -18.6419 -1.8492 -0.0000 0.0000 -7.4385 25.0802 -3.3836 -1.5823 -7.1250 0.0000 -0.0000 -1.1661 26.2445 0.5304 0.0000 0.0000 0.0000 85.4496 15.5613 19.1109 -15.3489 24.6299 -3.3700 0.0000 0.0000 25.9373 -21.2338 -25.7193 9.5711 7.1250 -0.0000 -0.0000 9.4614 -57.0574 -2.8122
0.3433 17.3664 -14.6313 -2.3471 0.3425 7.1864 0.0000 0.0000 0.0000 -15.7341 1.1509 -22.0684 2.3401 9.5413 27.5036 0.5745 -0.9866 -14.0132 0.0000 -0.0217 -0.0597 0.0000 0.0000 0.0000 19.7430 3.7332 -21.0539 -2.3910 -9.6369 27.8088 -0.6394 1.8092 -14.5954 -0.3173 -3.6211 10.0131 0.6272 -0.4288 2.5498 2.4133 -0.6267 4.4191 2.1313 -0.3375 3.1356 -1.6539 0.6237 -12.8426 0.1422 1.3171 33.7662 0.5455 0.3813 13.5171 0.0000 -0.0000 0.0000 -86.8274 -17.9895 35.9187 11.2795 -18.7155 -1.8646 -0.0000 0.0000 -7.9506 25.4644 -3.2117 -1.5283 -7.1250 0.0000 -0.0000 -0.8720 26.4232 0.3929 0.0000 -0.0000 0.0000 85.4087 15.6329 19.3781 -15.3962 24.6951 -3.3897 0.0000 0.0000 25.7651 -21.2373 -25.7072 9.5686 7.1250 -0.0000 -0.0000 9.4520 -57.0458 -2.8067
0.3459 17.3614 -14.6356 -2.3616 0.3306 7.1945 0.0000 0.0000 0.0000 -15.7210 1.1443 -22.1900 2.3684 9.5945 27.6734 0.5793 -0.9973 -14.0692 0.0000 -0.0330 -0.0908 0.0000 0.0000 0.0000 19.7377 3.7841 -21.1427 -2.4133 -9.6786 27.9421 -0.6430 1.8047 -14.6386 -0.3127 -3.5948 9.9394 0.6407 -0.4261 2.5952 2.4195 -0.6224 4.4244 2.1304 -0.3350 3.1153 -1.6625 0.6181 -12.8687 0.1558 1.3066 33.7297 0.5508 0.3777 13.5067 -0.0000 -0.0000 0.0000 -86.7308 -17.9980 36.4034 11.3466 -18.8175 -1.8862 -0.0000 0.0000 -8.5027 25.8169 -3.1136 -1.5052 -7.1250 0.0000 -0.0000 -0.6022 26.5216 0.2700 -0.0000 -0.0000 0.0000 85.3607 15.7047 19.6559 -15.4614 24.7849 -3.4170 0.0000 0.0000 25.5872 -21.2143 -25.6928 9.5526 7.1250 -0.0000 -0.0000 9.4697 -57.0261 -2.8075
0.3486 17.3562 -14.6404 -2.3697 0.3154 7.2043 0.0000 0.0000 0.0000 -15.7159 1.1423 -22.3199 2.3979 9.6498 27.8499 0.5842 -1.0127 -14.1263 0.0000 -0.0409 -0.1125 0.0000 0.0000 0.0000 19.7240 3.8361 -21.2425 -2.4380 -9.7242 28.0882 -0.6469 1.8044 -14.6841 -0.3084 -3.5705 9.8714 0.6507 -0.4217 2.6464 2.4230 -0.6155 4.4287 2.1289 -0.3313 3.0907 -1.6698 0.6114 -12.9002 0.1687 1.2946 33.6980 0.5553 0.3735 13.4997 0.0000 -0.0000 0.0000 -86.6291 -18.0201 36.8799 11.4310 -18.9458 -1.9135 -0.0000 0.0000 -9.0439 26.0945 -3.0833 -1.5091 -7.1250 0.0000 -0.0000 -0.3902 26.5472 0.1747 0.0000 -0.0000 0.0000 85.3048 15.7772 19.9457 -15.5437 24.8981 -3.4516 0.0000 0.0000 25.3995 -21.1812 -25.6667 9.5277 7.1250 -0.0000 -0.0000 9.4927 -56.9925 -2.8067
0.3513 17.3505 -14.6458 -2.3739 0.2980 7.2156 0.0000 0.0000 0.0000 -15.7161 1.1438 -22.4599 2.4289 9.7075 28.0347 0.5893 -1.0326 -14.1833 0.0001 -0.0473 -0.1299 0.0000 0.0000 0.0000 19.7045 3.8889 -21.3541 -2.4649 -9.7738 28.2474 -0.6510 1.8091 -14.7317 -0.3050 -3.5508 9.8162 0.6582 -0.4151 2.7053 2.4256 -0.6056 4.4313 2.1277 -0.3261 3.0600 -1.6716 0.6036 -12.9371 0.1738 1.2824 33.6720 0.5559 0.3688 13.4965 0.0000 0.0000 0.0000 -86.5241 -18.0539 37.3382 11.5384 -19.1089 -1.9485 -0.0000 0.0000 -9.5327 26.2626 -3.0501 -1.5039 -7.1250 0.0000 -0.0000 -0.2615 26.5793 0.1169 0.0000 0.0000 0.0000 85.2407 15.8525 20.2439 -15.6433 25.0346 -3.4936 0.0000 0.0000 25.1935 -21.1379 -25.6240 9.4922 7.1250 -0.0000 -0.0000 9.5187 -56.9397 -2.8023
0.3540 17.3445 -14.6512 -2.3742 0.2787 7.2258 0.0000 0.0000 0.0000 -15.7203 1.1525 -22.6061 2.4617 9.7679 28.2283 0.5947 -1.0601 -14.2429 0.0001 -0.0515 -0.1415 0.0000 0.0000 0.0000 19.6812 3.9415 -21.4728 -2.4942 -9.8274 28.4196 -0.6555 1.8147 -14.7825 -0.3002 -3.5231 9.7387 0.6621 -0.4078 2.7700 2.4268 -0.5945 4.4342 2.1272 -0.3204 3.0262 -1.6744 0.5933 -12.9749 0.1766 1.2678 33.6466 0.5554 0.3626 13.4939 -0.0000 0.0000 0.0000 -86.4190 -18.1042 37.7546 11.6574 -19.2889 -1.9877 -0.0000 0.0000 -9.9113 26.3259 -3.0283 -1.4973 -7.1250 0.0000 -0.0000 -0.2129 26.6018 0.0950 -0.0000 0.0000 0.0000 85.1708 15.9310 20.5523 -15.7556 25.1881 -3.5413 0.0000 0.0000 24.9739 -21.1413 -25.4968 9.4507 7.1250 -0.0000 -0.0000 9.4556 -56.8110 -2.7540
